<?xml version="1.0"?>
<svg xmlns="http://www.w3.org/2000/svg" xmlns:xlink="http://www.w3.org/1999/xlink" version="1.1" id="Layer_1" x="0px" y="0px" viewBox="0 0 511.984 511.984" style="enable-background:new 0 0 511.984 511.984;" xml:space="preserve" width="512px" height="512px" class=""><g><g>
	<path d="M85.333,431.982c-5.891,0-10.672,4.781-10.672,10.656c0,5.906,4.781,10.688,10.672,10.688   c5.891,0,10.664-4.781,10.664-10.688C95.997,436.763,91.223,431.982,85.333,431.982z" data-original="#434A54" class="active-path" data-old_color="#434A54" fill="#FFFFFF"/>
	<path d="M117.332,431.982c-5.891,0-10.672,4.781-10.672,10.656c0,5.906,4.781,10.688,10.672,10.688   c5.891,0,10.664-4.781,10.664-10.688C127.996,436.763,123.222,431.982,117.332,431.982z" data-original="#434A54" class="active-path" data-old_color="#434A54" fill="#FFFFFF"/>
	<path d="M149.331,431.982c-5.891,0-10.672,4.781-10.672,10.656c0,5.906,4.781,10.688,10.672,10.688   s10.664-4.781,10.664-10.688C159.995,436.763,155.221,431.982,149.331,431.982z" data-original="#434A54" class="active-path" data-old_color="#434A54" fill="#FFFFFF"/>
	<path d="M181.33,431.982c-5.891,0-10.672,4.781-10.672,10.656c0,5.906,4.781,10.688,10.672,10.688   s10.664-4.781,10.664-10.688C191.994,436.763,187.221,431.982,181.33,431.982z" data-original="#434A54" class="active-path" data-old_color="#434A54" fill="#FFFFFF"/>
	<path d="M213.329,431.982c-5.891,0-10.672,4.781-10.672,10.656c0,5.906,4.781,10.688,10.672,10.688   s10.664-4.781,10.664-10.688C223.993,436.763,219.22,431.982,213.329,431.982z" data-original="#434A54" class="active-path" data-old_color="#434A54" fill="#FFFFFF"/>
	<path d="M298.647,431.982c-5.875,0-10.656,4.781-10.656,10.656c0,5.906,4.781,10.688,10.656,10.688   c5.905,0,10.687-4.781,10.687-10.688C309.334,436.763,304.553,431.982,298.647,431.982z" data-original="#434A54" class="active-path" data-old_color="#434A54" fill="#FFFFFF"/>
	<path d="M330.645,431.982c-5.875,0-10.655,4.781-10.655,10.656c0,5.906,4.78,10.688,10.655,10.688   c5.906,0,10.688-4.781,10.688-10.688C341.333,436.763,336.552,431.982,330.645,431.982z" data-original="#434A54" class="active-path" data-old_color="#434A54" fill="#FFFFFF"/>
	<path d="M362.645,431.982c-5.875,0-10.656,4.781-10.656,10.656c0,5.906,4.781,10.688,10.656,10.688   c5.906,0,10.687-4.781,10.687-10.688C373.332,436.763,368.552,431.982,362.645,431.982z" data-original="#434A54" class="active-path" data-old_color="#434A54" fill="#FFFFFF"/>
	<path d="M394.643,431.982c-5.875,0-10.655,4.781-10.655,10.656c0,5.906,4.78,10.688,10.655,10.688   c5.906,0,10.688-4.781,10.688-10.688C405.331,436.763,400.55,431.982,394.643,431.982z" data-original="#434A54" class="active-path" data-old_color="#434A54" fill="#FFFFFF"/>
	<path d="M426.643,431.982c-5.875,0-10.656,4.781-10.656,10.656c0,5.906,4.781,10.688,10.656,10.688   c5.906,0,10.688-4.781,10.688-10.688C437.331,436.763,432.55,431.982,426.643,431.982z" data-original="#434A54" class="active-path" data-old_color="#434A54" fill="#FFFFFF"/>
	<path d="M501.329,58.658c-5.906,0-10.688,4.781-10.688,10.671v373.309c0,5.906,4.781,10.688,10.688,10.688   c5.874,0,10.655-4.781,10.655-10.688V69.329C511.984,63.439,507.203,58.658,501.329,58.658z" data-original="#434A54" class="active-path" data-old_color="#434A54" fill="#FFFFFF"/>
	<path d="M469.329,58.658c-5.906,0-10.688,4.781-10.688,10.671v373.309c0,5.906,4.781,10.688,10.688,10.688   c5.875,0,10.656-4.781,10.656-10.688V69.329C479.985,63.439,475.204,58.658,469.329,58.658z" data-original="#434A54" class="active-path" data-old_color="#434A54" fill="#FFFFFF"/>
	<path d="M437.331,58.658c-5.906,0-10.688,4.781-10.688,10.671V410.64c0,5.905,4.781,10.687,10.688,10.687   c5.874,0,10.655-4.781,10.655-10.687V69.329C447.986,63.439,443.205,58.658,437.331,58.658z" data-original="#434A54" class="active-path" data-old_color="#434A54" fill="#FFFFFF"/>
	<path d="M330.645,58.658c-5.875,0-10.655,4.781-10.655,10.671V410.64c0,5.905,4.78,10.687,10.655,10.687   c5.906,0,10.688-4.781,10.688-10.687V69.329C341.333,63.439,336.552,58.658,330.645,58.658z" data-original="#434A54" class="active-path" data-old_color="#434A54" fill="#FFFFFF"/>
	<path d="M298.647,58.658c-5.875,0-10.656,4.781-10.656,10.671V410.64c0,5.905,4.781,10.687,10.656,10.687   c5.905,0,10.687-4.781,10.687-10.687V69.329C309.334,63.439,304.553,58.658,298.647,58.658z" data-original="#434A54" class="active-path" data-old_color="#434A54" fill="#FFFFFF"/>
	<path d="M255.992,58.658c-5.891,0-10.664,4.781-10.664,10.671v373.309c0,5.906,4.773,10.688,10.664,10.688   c5.89,0,10.663-4.781,10.663-10.688V69.329C266.655,63.439,261.882,58.658,255.992,58.658z" data-original="#434A54" class="active-path" data-old_color="#434A54" fill="#FFFFFF"/>
	<path d="M149.331,410.64V69.329c0-5.891-4.781-10.671-10.672-10.671c-5.89,0-10.663,4.781-10.663,10.671   V410.64c0,5.905,4.773,10.687,10.663,10.687C144.55,421.327,149.331,416.546,149.331,410.64z" data-original="#434A54" class="active-path" data-old_color="#434A54" fill="#FFFFFF"/>
	<path d="M85.333,58.658c-5.891,0-10.672,4.781-10.672,10.671V410.64c0,5.905,4.781,10.687,10.672,10.687   c5.891,0,10.664-4.781,10.664-10.687V69.329C95.997,63.439,91.223,58.658,85.333,58.658z" data-original="#434A54" class="active-path" data-old_color="#434A54" fill="#FFFFFF"/>
	<path d="M42.662,58.658c-5.891,0-10.663,4.781-10.663,10.671v373.309c0,5.906,4.772,10.688,10.663,10.688   s10.672-4.781,10.672-10.688V69.329C53.334,63.439,48.553,58.658,42.662,58.658z" data-original="#434A54" class="active-path" data-old_color="#434A54" fill="#FFFFFF"/>
	<path d="M10.663,58.658C4.772,58.658,0,63.439,0,69.329v373.309c0,5.906,4.772,10.688,10.663,10.688   s10.672-4.781,10.672-10.688V69.329C21.335,63.439,16.554,58.658,10.663,58.658z" data-original="#434A54" class="active-path" data-old_color="#434A54" fill="#FFFFFF"/>
	<path d="M215.102,58.658h-46.218c-4.913,0-8.89,4.781-8.89,10.671V410.64c0,5.905,3.977,10.687,8.89,10.687   h46.218c4.914,0,8.891-4.781,8.891-10.687V69.329C223.993,63.439,220.016,58.658,215.102,58.658z" data-original="#434A54" class="active-path" data-old_color="#434A54" fill="#FFFFFF"/>
	<path d="M396.425,58.658H360.88c-4.906,0-8.891,4.781-8.891,10.671V410.64   c0,5.905,3.984,10.687,8.891,10.687h35.545c4.906,0,8.906-4.781,8.906-10.687V69.329C405.331,63.439,401.331,58.658,396.425,58.658   z" data-original="#434A54" class="active-path" data-old_color="#434A54" fill="#FFFFFF"/>
</g></g> </svg>
