<?xml version="1.0"?>
<svg xmlns="http://www.w3.org/2000/svg" id="Capa_1" enable-background="new 0 0 512 512" height="512px" viewBox="0 0 512 512" width="512px"><g><path d="m171.928 0c-19.596 0-38.098 13.866-52.099 39.043-12.587 22.634-19.805 51.499-19.805 79.195 0 28.335 14.754 54.127 38.504 67.312 8.17 4.535 12.984 12.971 12.563 22.016l-1.976 42.526c-.193 4.149 3.014 7.669 7.163 7.862 4.155.164 7.669-3.014 7.862-7.163l1.976-42.526c.688-14.795-7.086-28.538-20.287-35.866-18.975-10.534-30.763-31.287-30.763-54.161 0-25.216 6.528-51.417 17.909-71.885 11.066-19.899 25.263-31.312 38.953-31.312s27.888 11.413 38.953 31.312c11.382 20.468 17.909 46.669 17.909 71.885 0 22.874-11.788 43.627-30.763 54.161-13.201 7.328-20.974 21.071-20.287 35.866l12.524 269.488c.235 5.059-1.561 9.863-5.059 13.526-3.497 3.664-8.213 5.681-13.278 5.681-5.066 0-9.781-2.017-13.278-5.681-3.497-3.663-5.294-8.467-5.059-13.526l9.151-196.91c.193-4.149-3.014-7.669-7.163-7.862-4.135-.16-7.669 3.014-7.861 7.163l-9.151 196.91c-.428 9.206 2.84 17.945 9.203 24.611s14.942 10.337 24.158 10.337 17.795-3.671 24.158-10.337c6.363-6.665 9.631-15.405 9.203-24.611l-12.524-269.487c-.42-9.046 4.394-17.482 12.563-22.017 23.75-13.184 38.504-38.977 38.504-67.312 0-27.695-7.219-56.561-19.805-79.195-14-25.177-32.502-39.043-52.098-39.043z" data-original="#000000" class="active-path" data-old_color="#000000" fill="#999999"/><path d="m376.226 185.862c23.03-12.591 37.026-37.644 35.657-63.829l-5.406-103.381c-.546-10.459-9.179-18.652-19.652-18.652-5.341 0-10.339 2.103-14.072 5.921-3.735 3.82-5.725 8.864-5.604 14.205l2.026 89.476c.031 1.376-.657 2.29-1.07 2.712-.412.422-1.311 1.131-2.687 1.131-2.052 0-3.736-1.669-3.756-3.72l-.927-92.032c-.101-9.755-8.119-17.693-17.875-17.693-9.758 0-17.776 7.938-17.874 17.694l-.927 92.031c-.021 2.051-1.706 3.72-3.757 3.72-1.376 0-2.274-.709-2.687-1.131s-1.101-1.336-1.069-2.711l2.037-89.988c.117-5.206-1.821-10.121-5.461-13.844-3.64-3.722-8.511-5.771-13.716-5.771-10.208 0-18.623 7.986-19.157 18.179l-5.43 103.854c-1.389 26.564 12.27 51.035 35.645 63.863 7.735 4.245 12.461 12.861 12.038 21.95l-7.41 159.429c-.193 4.149 3.014 7.669 7.163 7.862 4.169.175 7.668-3.015 7.862-7.163l7.41-159.429c.686-14.781-7.095-28.848-19.826-35.836-18.27-10.025-28.946-29.143-27.86-49.891l5.429-103.854c.115-2.2 1.932-3.924 4.136-3.924 1.516 0 2.506.78 2.96 1.245.455.466 1.213 1.473 1.179 2.989l-2.037 89.987c-.116 5.101 1.784 9.919 5.35 13.567 3.566 3.649 8.34 5.658 13.443 5.658 10.263 0 18.695-8.349 18.798-18.61l.927-92.031c.015-1.546 1.286-2.804 2.833-2.804s2.818 1.258 2.834 2.804l.927 92.031c.103 10.261 8.535 18.61 18.797 18.61 5.102 0 9.875-2.009 13.442-5.657 3.567-3.649 5.468-8.466 5.352-13.567l-2.026-89.476c-.028-1.259.441-2.449 1.321-3.349.88-.901 2.058-1.396 3.318-1.396 2.47 0 4.504 1.931 4.633 4.397l5.405 103.381c1.086 20.761-9.586 39.86-27.851 49.845-12.738 6.964-20.525 21.013-19.839 35.792l12.515 269.295c.239 5.123-1.6 9.971-5.177 13.649-3.575 3.677-8.34 5.682-13.512 5.555-4.858-.09-9.402-2.134-12.797-5.757-3.518-3.754-5.399-8.859-5.161-14.003l3.675-79.075c.193-4.149-3.014-7.669-7.163-7.862-4.188-.185-7.668 3.014-7.862 7.163l-3.675 79.076c-.426 9.178 2.931 18.285 9.21 24.986 6.197 6.613 14.541 10.345 23.495 10.511.204.004.407.005.611.005 8.989 0 17.694-3.665 23.963-10.113 6.413-6.594 9.846-15.646 9.419-24.834l-12.515-269.294c-.422-9.076 4.299-17.67 12.028-21.896z" data-original="#000000" class="active-path" data-old_color="#000000" fill="#999999"/></g> </svg>
