<?xml version="1.0"?>
<svg xmlns="http://www.w3.org/2000/svg" height="512px" viewBox="-29 0 487 487.71902" width="512px" class=""><g><path d="m220.867188 266.175781c-.902344-.195312-1.828126-.230469-2.742188-.09375-9.160156-1.066406-16.070312-8.816406-16.085938-18.035156 0-4.417969-3.582031-8-8-8-4.417968 0-8 3.582031-8 8 .023438 15.394531 10.320313 28.878906 25.164063 32.953125v8c0 4.417969 3.582031 8 8 8s8-3.582031 8-8v-7.515625c17.132813-3.585937 28.777344-19.542969 26.976563-36.953125-1.804688-17.410156-16.472657-30.640625-33.976563-30.644531-10.03125 0-18.164063-8.132813-18.164063-18.164063s8.132813-18.164062 18.164063-18.164062 18.164063 8.132812 18.164063 18.164062c0 4.417969 3.582031 8 8 8 4.417968 0 8-3.582031 8-8-.023438-16.164062-11.347657-30.105468-27.164063-33.441406v-7.28125c0-4.417969-3.582031-8-8-8s-8 3.582031-8 8v7.769531c-16.507813 4.507813-27.132813 20.535157-24.859375 37.496094s16.746094 29.621094 33.859375 29.617187c9.898437 0 17.972656 7.925782 18.152344 17.820313.183593 9.894531-7.597657 18.113281-17.488281 18.472656zm0 0" data-original="#000000" class="active-path" data-old_color="#000000" fill="#FFFFFF"/><path d="m104.195312 222.5c0 64.070312 51.9375 116.007812 116.007813 116.007812s116.007813-51.9375 116.007813-116.007812-51.9375-116.007812-116.007813-116.007812c-64.039063.070312-115.933594 51.96875-116.007813 116.007812zm116.007813-100.007812c55.234375 0 100.007813 44.773437 100.007813 100.007812s-44.773438 100.007812-100.007813 100.007812-100.007813-44.773437-100.007813-100.007812c.0625-55.207031 44.800782-99.945312 100.007813-100.007812zm0 0" data-original="#000000" class="active-path" data-old_color="#000000" fill="#FFFFFF"/><path d="m375.648438 358.230469-62.667969 29.609375c-8.652344-16.09375-25.25-26.335938-43.515625-26.851563l-57.851563-1.589843c-9.160156-.261719-18.148437-2.582032-26.292969-6.789063l-5.886718-3.050781c-30.140625-15.710938-66.066406-15.671875-96.175782.101562l.367188-13.335937c.121094-4.417969-3.359375-8.097657-7.777344-8.21875l-63.4375-1.746094c-4.417968-.121094-8.09375 3.359375-8.214844 7.777344l-3.832031 139.210937c-.121093 4.417969 3.359375 8.097656 7.777344 8.21875l63.4375 1.746094h.21875c4.335937 0 7.882813-3.449219 8-7.78125l.183594-6.660156 16.480469-8.824219c6.46875-3.480469 14.03125-4.308594 21.097656-2.308594l98.414062 27.621094c.171875.050781.34375.089844.519532.128906 7.113281 1.488281 14.363281 2.234375 21.628906 2.230469 15.390625.007812 30.601562-3.308594 44.589844-9.730469.34375-.15625.675781-.339843.992187-.546875l142.691406-92.296875c3.554688-2.300781 4.703125-6.96875 2.621094-10.65625-10.59375-18.796875-34.089844-25.957031-53.367187-16.257812zm-359.070313 107.5625 3.390625-123.21875 47.441406 1.304687-3.390625 123.222656zm258.925781-2.09375c-17.378906 7.84375-36.789062 10.007812-55.46875 6.191406l-98.148437-27.550781c-11.046875-3.121094-22.871094-1.828125-32.976563 3.605468l-8.421875 4.511719 2.253907-81.925781c26.6875-17.75 60.914062-19.574219 89.335937-4.765625l5.886719 3.050781c10.289062 5.3125 21.636718 8.242188 33.210937 8.578125l57.855469 1.589844c16.25.46875 30.050781 12.039063 33.347656 27.960937l-86.175781-2.378906c-4.417969-.121094-8.09375 3.363282-8.21875 7.777344-.121094 4.417969 3.363281 8.097656 7.777344 8.21875l95.101562 2.617188h.222657c4.332031-.003907 7.875-3.453126 7.992187-7.78125.097656-3.476563-.160156-6.957032-.773437-10.378907l64.277343-30.371093c.0625-.027344.125-.058594.1875-.089844 9.117188-4.613282 20.140625-3.070313 27.640625 3.871094zm0 0" data-original="#000000" class="active-path" data-old_color="#000000" fill="#FFFFFF"/><path d="m228.203125 84v-76c0-4.417969-3.582031-8-8-8s-8 3.582031-8 8v76c0 4.417969 3.582031 8 8 8s8-3.582031 8-8zm0 0" data-original="#000000" class="active-path" data-old_color="#000000" fill="#FFFFFF"/><path d="m288.203125 84v-36c0-4.417969-3.582031-8-8-8s-8 3.582031-8 8v36c0 4.417969 3.582031 8 8 8s8-3.582031 8-8zm0 0" data-original="#000000" class="active-path" data-old_color="#000000" fill="#FFFFFF"/><path d="m168.203125 84v-36c0-4.417969-3.582031-8-8-8s-8 3.582031-8 8v36c0 4.417969 3.582031 8 8 8s8-3.582031 8-8zm0 0" data-original="#000000" class="active-path" data-old_color="#000000" fill="#FFFFFF"/></g> </svg>
