<?xml version="1.0"?>
<svg xmlns="http://www.w3.org/2000/svg" id="Layer_1" height="512px" viewBox="0 0 128 128" width="512px" data-name="Layer 1"><g><path d="m58.755 102.7a1.75 1.75 0 0 0 -2.343 2.6l2.729 2.46a44.038 44.038 0 0 1 -6.762-86.245 1.75 1.75 0 1 0 -.921-3.377 47.537 47.537 0 0 0 7.185 93.086l-3.509 2.316a1.75 1.75 0 1 0 1.929 2.92l7.9-5.216a1.75 1.75 0 0 0 .208-2.76z" data-original="#000000" class="active-path" data-old_color="#000000" fill="#FFFFFF"/><path d="m69.357 16.776 3.508-2.316a1.75 1.75 0 1 0 -1.928-2.92l-7.9 5.216a1.749 1.749 0 0 0 -.207 2.76l6.415 5.784a1.75 1.75 0 0 0 2.344-2.6l-2.729-2.46a44.038 44.038 0 0 1 7.284 86.1 1.75 1.75 0 0 0 .962 3.366 47.537 47.537 0 0 0 -7.749-92.928z" data-original="#000000" class="active-path" data-old_color="#000000" fill="#FFFFFF"/><path d="m26.5 64a37.5 37.5 0 1 0 37.5-37.5 37.542 37.542 0 0 0 -37.5 37.5zm37.5-34a34 34 0 1 1 -34 34 34.038 34.038 0 0 1 34-34z" data-original="#000000" class="active-path" data-old_color="#000000" fill="#FFFFFF"/><path d="m64 93.505a29.5 29.5 0 1 0 -29.505-29.505 29.537 29.537 0 0 0 29.505 29.505zm0-55.51a26.005 26.005 0 1 1 -26.005 26.005 26.035 26.035 0 0 1 26.005-26.005z" data-original="#000000" class="active-path" data-old_color="#000000" fill="#FFFFFF"/><path d="m57.9 71.878a1.75 1.75 0 0 0 -3.5 0 9.64 9.64 0 0 0 7.855 9.459v3.983a1.75 1.75 0 0 0 3.5 0v-3.976a9.62 9.62 0 0 0 0-18.93v-12.169a6.136 6.136 0 0 1 4.4 5.877 1.75 1.75 0 0 0 3.5 0 9.639 9.639 0 0 0 -7.9-9.466v-3.976a1.75 1.75 0 0 0 -3.5 0v3.983a9.622 9.622 0 0 0 0 18.916v12.165a6.139 6.139 0 0 1 -4.355-5.866zm12.256 0a6.136 6.136 0 0 1 -4.4 5.877v-11.755a6.136 6.136 0 0 1 4.395 5.878zm-12.256-15.756a6.139 6.139 0 0 1 4.355-5.866v11.73a6.137 6.137 0 0 1 -4.355-5.864z" data-original="#000000" class="active-path" data-old_color="#000000" fill="#FFFFFF"/></g> </svg>
